<svg id="Layer_1" data-name="Layer 1" xmlns="http://www.w3.org/2000/svg" viewBox="0 0 436.14 225.59"><defs><style>.cls-1{fill:#64c297;}.cls-2{fill:#fff;}.cls-3{fill:#ee3454;}.cls-4{fill:#391212;}.cls-5{fill:none;stroke:#391212;stroke-miterlimit:10;stroke-width:12.96px;}</style></defs><path class="cls-1" d="M218.07,0C97.83,0,0,97.83,0,218.07H24C24,111.06,111.06,24,218.07,24s194.07,87.06,194.07,194.07h24C436.14,97.83,338.32,0,218.07,0Z"/><path class="cls-2" d="M218.07,36A182.07,182.07,0,0,1,400.14,218.07h12c0-107-87.06-194.07-194.07-194.07S24,111.06,24,218.07H36A182.08,182.08,0,0,1,218.07,36Z"/><path class="cls-3" d="M218.07,36A182.08,182.08,0,0,0,36,218.07H400.14A182.07,182.07,0,0,0,218.07,36Z"/><path class="cls-4" d="M216.29,66.67c-5.2-7.82-3.15-12-.92-14a4.06,4.06,0,0,1,5.4,0c2.23,2,4.28,6.13-.92,14A2.15,2.15,0,0,1,216.29,66.67Z"/><path class="cls-4" d="M118.19,165.46c-9.31,1.22-12.12-2.43-12.92-5.32a4,4,0,0,1,2.37-4.84c2.77-1.13,7.39-1.15,12.12,7A2.15,2.15,0,0,1,118.19,165.46Z"/><path class="cls-4" d="M318,165.46c9.31,1.22,12.12-2.43,12.93-5.32a4.05,4.05,0,0,0-2.38-4.84c-2.77-1.13-7.38-1.15-12.12,7A2.15,2.15,0,0,0,318,165.46Z"/><path class="cls-4" d="M178,109.69c-8-4.88-7.92-9.49-6.74-12.24a4.06,4.06,0,0,1,4.89-2.29c2.86.86,6.47,3.73,5.08,13A2.15,2.15,0,0,1,178,109.69Z"/><path class="cls-4" d="M258.16,109.69c8-4.88,7.92-9.49,6.75-12.24A4.06,4.06,0,0,0,260,95.16c-2.87.86-6.48,3.73-5.09,13A2.15,2.15,0,0,0,258.16,109.69Z"/><path class="cls-4" d="M113.52,109c-9.2-1.85-10.68-6.22-10.51-9.21A4.06,4.06,0,0,1,106.83,96c3-.18,7.36,1.3,9.21,10.5A2.15,2.15,0,0,1,113.52,109Z"/><path class="cls-4" d="M322.62,109c9.21-1.85,10.68-6.22,10.51-9.21A4.05,4.05,0,0,0,329.31,96c-3-.18-7.36,1.3-9.21,10.5A2.15,2.15,0,0,0,322.62,109Z"/><path class="cls-4" d="M69.78,199.19c-7.82,5.2-12,3.15-14,.92a4.06,4.06,0,0,1,0-5.4c2-2.24,6.13-4.28,14,.91A2.16,2.16,0,0,1,69.78,199.19Z"/><path class="cls-4" d="M366.37,199.19c7.82,5.2,11.95,3.15,13.94.92a4.06,4.06,0,0,0,0-5.4c-2-2.24-6.12-4.28-13.94.91A2.15,2.15,0,0,0,366.37,199.19Z"/><line class="cls-5" x1="218.07" y1="214.23" x2="317.37" y2="44.73"/><polyline class="cls-5" points="272.57 52.24 320.06 39.84 332.57 87.75"/><circle class="cls-5" cx="218.07" cy="214.07" r="5.04"/></svg>